# xmcd
#
# Track frame offsets: 
#        150
#        20041
#        37584
#        57094
#        68915
#        80736
#        97481
#        116352
#        133301
#        141435
#        154618
#        164938
#        186749
#        200667
#        219111
#        231556
#        253951
#        267193
#        280483
#        306798
#        313595
#        332028
#
# Disc length: 4771 seconds
#
# Revision: 1
# Processed by: cddbd v1.5.2PL0 Copyright (c) Steve Scherf et al.
# Submitted via: ExactAudioCopy v1.0b6
#
DISCID=6212a116
DTITLE=Various Artist - Dust On The Nettles
DYEAR=2015
DGENRE=Folk
TTITLE0=Gerald Moore - Pilgrim
TTITLE1=Melton Constable - River Lane
TTITLE2=Moonkyte - Way Out Hermit
TTITLE3=Steeleye Span - All Things Are Quite Silent
TTITLE4=Heron - Upon Reflection
TTITLE5=Parchment - Love Is Come Again
TTITLE6=Shelagh McDonald - Stargazer
TTITLE7=Tony Caro and John - There Are No Greater Heroes
TTITLE8=Joan Armatrading - Visionary Mountains
TTITLE9=Tuesday - Glow Of The Firelight
TTITLE10=Warm Gold - Searching For Lambs
TTITLE11=Benjamin Delaney Lion - Samantha Carol Fragments
TTITLE12=Fairport Convention - Fotheringay
TTITLE13=Frozen Tear - You Know What Has To Be
TTITLE14=Hunt Lunt and Cunningham - Meanwhile Back In The Forest
TTITLE15=Incredible String Band - First Girl I Loved
TTITLE16=The Moths - Halfdan's Daughter
TTITLE17=Trader Horne - The Mutant
TTITLE18=Dry Heart - Meeting By The Moonlight Mill
TTITLE19=Tyrannosaurus Rex - Highways (Misty Mist)
TTITLE20=Duncan Browne - Gabilan
TTITLE21=Kevin Coyne - Sand All Yellow
EXTD=
EXTT0=
EXTT1=
EXTT2=
EXTT3=
EXTT4=
EXTT5=
EXTT6=
EXTT7=
EXTT8=
EXTT9=
EXTT10=
EXTT11=
EXTT12=
EXTT13=
EXTT14=
EXTT15=
EXTT16=
EXTT17=
EXTT18=
EXTT19=
EXTT20=
EXTT21=
PLAYORDER=
